<?xml version="1.0" encoding="UTF-8" standalone="no"?>
<!DOCTYPE svg PUBLIC "-//W3C//DTD SVG 1.1//EN" "http://www.w3.org/Graphics/SVG/1.1/DTD/svg11.dtd">
<svg width="100%" height="100%" viewBox="0 0 500 85" version="1.1" xmlns="http://www.w3.org/2000/svg" xmlns:xlink="http://www.w3.org/1999/xlink" xml:space="preserve" xmlns:serif="http://www.serif.com/" style="fill-rule:evenodd;clip-rule:evenodd;stroke-linejoin:round;stroke-miterlimit:2;">
    <g transform="matrix(0.880501,0,0,0.880501,-40.7569,-0.0285317)">
        <text x="37.646px" y="66.631px" style="font-family:'Montserrat-SemiBold', 'Montserrat';font-weight:600;font-size:91.941px;fill:rgb(16,32,39);">L<tspan x="89.501px 158.824px 217.943px 318.802px 393.918px 479.424px 545.989px " y="66.631px 66.631px 66.631px 66.631px 66.631px 66.631px 66.631px ">UXWOMAN</tspan></text>
    </g>
    <g transform="matrix(1,0,0,1,-81.1562,4.87688)">
        <text x="177.523px" y="79.925px" style="font-family:'Montserrat-SemiBold', 'Montserrat';font-weight:600;font-size:19.78px;fill:rgb(55,71,79);">L<tspan x="190.36px 204.602px 211.051px 226.202px 239.04px 246.339px 261.945px 278.205px 292.446px 298.895px 311.594px 329.238px 344.686px 360.055px 377.066px 394.71px 411.721px 418.17px 432.629px 448.433px 463.882px 471.181px " y="79.925px 79.925px 79.925px 79.925px 79.925px 79.925px 79.925px 79.925px 79.925px 79.925px 79.925px 79.925px 79.925px 79.925px 79.925px 79.925px 79.925px 79.925px 79.925px 79.925px 79.925px 79.925px ">E PLIAGE TORCHON PARIS</tspan></text>
    </g>
</svg>
