<?xml version="1.0" encoding="UTF-8" standalone="no"?>
<!DOCTYPE svg PUBLIC "-//W3C//DTD SVG 1.1//EN" "http://www.w3.org/Graphics/SVG/1.1/DTD/svg11.dtd">
<svg width="100%" height="100%" viewBox="0 0 500 85" version="1.1" xmlns="http://www.w3.org/2000/svg" xmlns:xlink="http://www.w3.org/1999/xlink" xml:space="preserve" xmlns:serif="http://www.serif.com/" style="fill-rule:evenodd;clip-rule:evenodd;stroke-linejoin:round;stroke-miterlimit:2;">
    <g transform="matrix(0.86308,0,0,0.86308,-39.9505,-1.16765)">
        <g>
            <g transform="matrix(1,0,0,1,37.646,66.631)">
                <path d="M8.642,-64.359L20.595,-64.359L20.595,-10.114L54.245,-10.114L54.245,0L8.642,0L8.642,-64.359Z" style="fill:rgb(16,32,39);fill-rule:nonzero;"/>
            </g>
            <g transform="matrix(1,0,0,1,89.501,66.631)">
                <path d="M36.317,0.919C27.429,0.919 20.503,-1.578 15.538,-6.574C10.573,-11.569 8.091,-18.725 8.091,-28.042L8.091,-64.359L20.043,-64.359L20.043,-28.502C20.043,-15.875 25.498,-9.562 36.409,-9.562C47.258,-9.562 52.682,-15.875 52.682,-28.502L52.682,-64.359L64.451,-64.359L64.451,-28.042C64.451,-18.725 61.984,-11.569 57.049,-6.574C52.115,-1.578 45.204,0.919 36.317,0.919Z" style="fill:rgb(16,32,39);fill-rule:nonzero;"/>
                <path d="M120.81,0L103.342,-24.456L86.057,0L72.45,0L96.354,-32.823L73.737,-64.359L87.252,-64.359L103.709,-41.465L119.983,-64.359L132.947,-64.359L110.421,-33.283L134.602,0L120.81,0Z" style="fill:rgb(16,32,39);fill-rule:nonzero;"/>
                <path d="M235.737,-64.359L214.406,0L201.719,0L185.813,-47.625L169.631,0L156.851,0L135.521,-64.359L147.933,-64.359L163.931,-15.446L180.572,-64.359L191.605,-64.359L207.879,-15.17L224.336,-64.359L235.737,-64.359Z" style="fill:rgb(16,32,39);fill-rule:nonzero;"/>
                <path d="M274.904,0.919C268.345,0.919 262.43,-0.506 257.159,-3.356C251.888,-6.206 247.75,-10.159 244.747,-15.216C241.744,-20.273 240.242,-25.927 240.242,-32.179C240.242,-38.431 241.744,-44.086 244.747,-49.142C247.75,-54.199 251.888,-58.153 257.159,-61.003C262.43,-63.853 268.345,-65.278 274.904,-65.278C281.462,-65.278 287.377,-63.853 292.648,-61.003C297.919,-58.153 302.057,-54.215 305.06,-49.188C308.064,-44.162 309.565,-38.493 309.565,-32.179C309.565,-25.866 308.064,-20.196 305.06,-15.17C302.057,-10.144 297.919,-6.206 292.648,-3.356C287.377,-0.506 281.462,0.919 274.904,0.919ZM274.904,-9.562C279.194,-9.562 283.056,-10.527 286.488,-12.458C289.921,-14.389 292.618,-17.086 294.579,-20.549C296.54,-24.012 297.521,-27.889 297.521,-32.179C297.521,-36.47 296.54,-40.347 294.579,-43.81C292.618,-47.273 289.921,-49.97 286.488,-51.901C283.056,-53.831 279.194,-54.797 274.904,-54.797C270.613,-54.797 266.751,-53.831 263.319,-51.901C259.887,-49.97 257.19,-47.273 255.228,-43.81C253.267,-40.347 252.286,-36.47 252.286,-32.179C252.286,-27.889 253.267,-24.012 255.228,-20.549C257.19,-17.086 259.887,-14.389 263.319,-12.458C266.751,-10.527 270.613,-9.562 274.904,-9.562Z" style="fill:rgb(16,32,39);fill-rule:nonzero;"/>
                <path d="M381.371,0L381.279,-42.661L360.133,-7.355L354.8,-7.355L333.654,-42.109L333.654,0L322.253,0L322.253,-64.359L332.091,-64.359L357.65,-21.698L382.75,-64.359L392.588,-64.359L392.68,0L381.371,0Z" style="fill:rgb(16,32,39);fill-rule:nonzero;"/>
                <path d="M451.798,-14.894L419.619,-14.894L413.275,0L400.955,0L429.916,-64.359L441.685,-64.359L470.738,0L458.234,0L451.798,-14.894ZM447.845,-24.272L435.708,-52.406L423.664,-24.272L447.845,-24.272Z" style="fill:rgb(16,32,39);fill-rule:nonzero;"/>
                <path d="M536.108,-64.359L536.108,0L526.27,0L490.781,-43.58L490.781,0L478.921,0L478.921,-64.359L488.758,-64.359L524.248,-20.779L524.248,-64.359L536.108,-64.359Z" style="fill:rgb(16,32,39);fill-rule:nonzero;"/>
            </g>
        </g>
    </g>
    <g transform="matrix(1,0,0,1,-70.7697,4.8772)">
        <g>
            <g transform="matrix(1,0,0,1,177.523,79.925)">
                <path d="M1.859,-13.846L4.431,-13.846L4.431,-2.176L11.67,-2.176L11.67,0L1.859,0L1.859,-13.846Z" style="fill:rgb(55,71,79);fill-rule:nonzero;"/>
            </g>
            <g transform="matrix(1,0,0,1,190.36,79.925)">
                <path d="M12.244,-2.156L12.244,0L1.859,0L1.859,-13.846L11.967,-13.846L11.967,-11.69L4.431,-11.69L4.431,-8.09L11.116,-8.09L11.116,-5.974L4.431,-5.974L4.431,-2.156L12.244,-2.156Z" style="fill:rgb(55,71,79);fill-rule:nonzero;"/>
                <path d="M26.268,-13.846C27.468,-13.846 28.513,-13.648 29.403,-13.253C30.293,-12.857 30.975,-12.29 31.45,-11.552C31.925,-10.813 32.162,-9.936 32.162,-8.921C32.162,-7.919 31.925,-7.045 31.45,-6.3C30.975,-5.555 30.293,-4.985 29.403,-4.589C28.513,-4.193 27.468,-3.996 26.268,-3.996L23.143,-3.996L23.143,0L20.571,0L20.571,-13.846L26.268,-13.846ZM26.149,-6.171C27.27,-6.171 28.121,-6.409 28.701,-6.883C29.281,-7.358 29.571,-8.037 29.571,-8.921C29.571,-9.804 29.281,-10.483 28.701,-10.958C28.121,-11.433 27.27,-11.67 26.149,-11.67L23.143,-11.67L23.143,-6.171L26.149,-6.171Z" style="fill:rgb(55,71,79);fill-rule:nonzero;"/>
                <path d="M34.734,-13.846L37.305,-13.846L37.305,-2.176L44.545,-2.176L44.545,0L34.734,0L34.734,-13.846Z" style="fill:rgb(55,71,79);fill-rule:nonzero;"/>
                <rect x="46.582" y="-13.846" width="2.571" height="13.846" style="fill:rgb(55,71,79);fill-rule:nonzero;"/>
                <path d="M61.872,-3.204L54.949,-3.204L53.584,0L50.934,0L57.164,-13.846L59.696,-13.846L65.947,0L63.256,0L61.872,-3.204ZM61.021,-5.222L58.41,-11.275L55.819,-5.222L61.021,-5.222Z" style="fill:rgb(55,71,79);fill-rule:nonzero;"/>
                <path d="M76.964,-7.081L79.397,-7.081L79.397,-1.563C78.685,-0.996 77.854,-0.56 76.905,-0.257C75.955,0.046 74.979,0.198 73.977,0.198C72.566,0.198 71.294,-0.109 70.16,-0.722C69.026,-1.335 68.136,-2.182 67.489,-3.264C66.843,-4.345 66.52,-5.565 66.52,-6.923C66.52,-8.281 66.843,-9.501 67.489,-10.582C68.136,-11.664 69.029,-12.511 70.17,-13.124C71.31,-13.737 72.593,-14.044 74.017,-14.044C75.177,-14.044 76.232,-13.853 77.182,-13.47C78.131,-13.088 78.929,-12.527 79.575,-11.789L77.953,-10.206C76.898,-11.261 75.626,-11.789 74.135,-11.789C73.16,-11.789 72.293,-11.584 71.534,-11.176C70.776,-10.767 70.183,-10.193 69.754,-9.455C69.326,-8.716 69.111,-7.872 69.111,-6.923C69.111,-6 69.326,-5.169 69.754,-4.431C70.183,-3.692 70.776,-3.112 71.534,-2.69C72.293,-2.268 73.153,-2.057 74.116,-2.057C75.197,-2.057 76.146,-2.294 76.964,-2.769L76.964,-7.081Z" style="fill:rgb(55,71,79);fill-rule:nonzero;"/>
                <path d="M93.164,-2.156L93.164,0L82.779,0L82.779,-13.846L92.887,-13.846L92.887,-11.69L85.351,-11.69L85.351,-8.09L92.036,-8.09L92.036,-5.974L85.351,-5.974L85.351,-2.156L93.164,-2.156Z" style="fill:rgb(55,71,79);fill-rule:nonzero;"/>
                <path d="M104.3,-11.67L99.711,-11.67L99.711,-13.846L111.46,-13.846L111.46,-11.67L106.871,-11.67L106.871,0L104.3,0L104.3,-11.67Z" style="fill:rgb(55,71,79);fill-rule:nonzero;"/>
                <path d="M119.669,0.198C118.258,0.198 116.986,-0.109 115.851,-0.722C114.717,-1.335 113.827,-2.186 113.181,-3.274C112.535,-4.361 112.212,-5.578 112.212,-6.923C112.212,-8.268 112.535,-9.485 113.181,-10.572C113.827,-11.66 114.717,-12.511 115.851,-13.124C116.986,-13.737 118.258,-14.044 119.669,-14.044C121.08,-14.044 122.352,-13.737 123.487,-13.124C124.621,-12.511 125.511,-11.664 126.157,-10.582C126.803,-9.501 127.126,-8.281 127.126,-6.923C127.126,-5.565 126.803,-4.345 126.157,-3.264C125.511,-2.182 124.621,-1.335 123.487,-0.722C122.352,-0.109 121.08,0.198 119.669,0.198ZM119.669,-2.057C120.592,-2.057 121.423,-2.265 122.161,-2.68C122.9,-3.096 123.48,-3.676 123.902,-4.421C124.324,-5.166 124.535,-6 124.535,-6.923C124.535,-7.846 124.324,-8.68 123.902,-9.425C123.48,-10.17 122.9,-10.75 122.161,-11.166C121.423,-11.581 120.592,-11.789 119.669,-11.789C118.746,-11.789 117.915,-11.581 117.177,-11.166C116.438,-10.75 115.858,-10.17 115.436,-9.425C115.014,-8.68 114.803,-7.846 114.803,-6.923C114.803,-6 115.014,-5.166 115.436,-4.421C115.858,-3.676 116.438,-3.096 117.177,-2.68C117.915,-2.265 118.746,-2.057 119.669,-2.057Z" style="fill:rgb(55,71,79);fill-rule:nonzero;"/>
                <path d="M138.915,0L136.086,-4.055C135.968,-4.042 135.79,-4.035 135.552,-4.035L132.427,-4.035L132.427,0L129.856,0L129.856,-13.846L135.552,-13.846C136.752,-13.846 137.797,-13.648 138.687,-13.253C139.578,-12.857 140.26,-12.29 140.735,-11.552C141.209,-10.813 141.447,-9.936 141.447,-8.921C141.447,-7.879 141.193,-6.982 140.685,-6.231C140.178,-5.479 139.449,-4.919 138.5,-4.549L141.684,0L138.915,0ZM138.856,-8.921C138.856,-9.804 138.565,-10.483 137.985,-10.958C137.405,-11.433 136.555,-11.67 135.434,-11.67L132.427,-11.67L132.427,-6.152L135.434,-6.152C136.555,-6.152 137.405,-6.392 137.985,-6.874C138.565,-7.355 138.856,-8.037 138.856,-8.921Z" style="fill:rgb(55,71,79);fill-rule:nonzero;"/>
                <path d="M150.724,0.198C149.326,0.198 148.063,-0.109 146.936,-0.722C145.808,-1.335 144.925,-2.182 144.285,-3.264C143.646,-4.345 143.326,-5.565 143.326,-6.923C143.326,-8.281 143.649,-9.501 144.295,-10.582C144.941,-11.664 145.828,-12.511 146.956,-13.124C148.083,-13.737 149.346,-14.044 150.743,-14.044C151.877,-14.044 152.913,-13.846 153.849,-13.45C154.785,-13.055 155.576,-12.481 156.222,-11.73L154.561,-10.167C153.559,-11.248 152.326,-11.789 150.862,-11.789C149.913,-11.789 149.062,-11.581 148.31,-11.166C147.559,-10.75 146.972,-10.174 146.55,-9.435C146.128,-8.697 145.917,-7.859 145.917,-6.923C145.917,-5.987 146.128,-5.149 146.55,-4.411C146.972,-3.672 147.559,-3.096 148.31,-2.68C149.062,-2.265 149.913,-2.057 150.862,-2.057C152.326,-2.057 153.559,-2.604 154.561,-3.699L156.222,-2.116C155.576,-1.365 154.782,-0.791 153.839,-0.396C152.896,0 151.858,0.198 150.724,0.198Z" style="fill:rgb(55,71,79);fill-rule:nonzero;"/>
                <path d="M170.998,-13.846L170.998,0L168.427,0L168.427,-5.934L161.266,-5.934L161.266,0L158.695,0L158.695,-13.846L161.266,-13.846L161.266,-8.13L168.427,-8.13L168.427,-13.846L170.998,-13.846Z" style="fill:rgb(55,71,79);fill-rule:nonzero;"/>
                <path d="M181.185,0.198C179.774,0.198 178.501,-0.109 177.367,-0.722C176.233,-1.335 175.343,-2.186 174.697,-3.274C174.051,-4.361 173.728,-5.578 173.728,-6.923C173.728,-8.268 174.051,-9.485 174.697,-10.572C175.343,-11.66 176.233,-12.511 177.367,-13.124C178.501,-13.737 179.774,-14.044 181.185,-14.044C182.596,-14.044 183.868,-13.737 185.002,-13.124C186.136,-12.511 187.026,-11.664 187.673,-10.582C188.319,-9.501 188.642,-8.281 188.642,-6.923C188.642,-5.565 188.319,-4.345 187.673,-3.264C187.026,-2.182 186.136,-1.335 185.002,-0.722C183.868,-0.109 182.596,0.198 181.185,0.198ZM181.185,-2.057C182.108,-2.057 182.939,-2.265 183.677,-2.68C184.416,-3.096 184.996,-3.676 185.418,-4.421C185.84,-5.166 186.051,-6 186.051,-6.923C186.051,-7.846 185.84,-8.68 185.418,-9.425C184.996,-10.17 184.416,-10.75 183.677,-11.166C182.939,-11.581 182.108,-11.789 181.185,-11.789C180.262,-11.789 179.431,-11.581 178.693,-11.166C177.954,-10.75 177.374,-10.17 176.952,-9.425C176.53,-8.68 176.319,-7.846 176.319,-6.923C176.319,-6 176.53,-5.166 176.952,-4.421C177.374,-3.676 177.954,-3.096 178.693,-2.68C179.431,-2.265 180.262,-2.057 181.185,-2.057Z" style="fill:rgb(55,71,79);fill-rule:nonzero;"/>
                <path d="M203.675,-13.846L203.675,0L201.558,0L193.923,-9.376L193.923,0L191.372,0L191.372,-13.846L193.488,-13.846L201.123,-4.47L201.123,-13.846L203.675,-13.846Z" style="fill:rgb(55,71,79);fill-rule:nonzero;"/>
                <path d="M218.549,-13.846C219.749,-13.846 220.794,-13.648 221.684,-13.253C222.574,-12.857 223.257,-12.29 223.732,-11.552C224.206,-10.813 224.444,-9.936 224.444,-8.921C224.444,-7.919 224.206,-7.045 223.732,-6.3C223.257,-5.555 222.574,-4.985 221.684,-4.589C220.794,-4.193 219.749,-3.996 218.549,-3.996L215.424,-3.996L215.424,0L212.853,0L212.853,-13.846L218.549,-13.846ZM218.431,-6.171C219.551,-6.171 220.402,-6.409 220.982,-6.883C221.562,-7.358 221.852,-8.037 221.852,-8.921C221.852,-9.804 221.562,-10.483 220.982,-10.958C220.402,-11.433 219.551,-11.67 218.431,-11.67L215.424,-11.67L215.424,-6.171L218.431,-6.171Z" style="fill:rgb(55,71,79);fill-rule:nonzero;"/>
                <path d="M235.303,-3.204L228.38,-3.204L227.015,0L224.365,0L230.595,-13.846L233.127,-13.846L239.378,0L236.687,0L235.303,-3.204ZM234.452,-5.222L231.841,-11.275L229.25,-5.222L234.452,-5.222Z" style="fill:rgb(55,71,79);fill-rule:nonzero;"/>
                <path d="M250.197,0L247.369,-4.055C247.25,-4.042 247.072,-4.035 246.835,-4.035L243.709,-4.035L243.709,0L241.138,0L241.138,-13.846L246.835,-13.846C248.035,-13.846 249.08,-13.648 249.97,-13.253C250.86,-12.857 251.542,-12.29 252.017,-11.552C252.492,-10.813 252.729,-9.936 252.729,-8.921C252.729,-7.879 252.475,-6.982 251.968,-6.231C251.46,-5.479 250.731,-4.919 249.782,-4.549L252.966,0L250.197,0ZM250.138,-8.921C250.138,-9.804 249.848,-10.483 249.268,-10.958C248.687,-11.433 247.837,-11.67 246.716,-11.67L243.709,-11.67L243.709,-6.152L246.716,-6.152C247.837,-6.152 248.687,-6.392 249.268,-6.874C249.848,-7.355 250.138,-8.037 250.138,-8.921Z" style="fill:rgb(55,71,79);fill-rule:nonzero;"/>
                <rect x="255.597" y="-13.846" width="2.571" height="13.846" style="fill:rgb(55,71,79);fill-rule:nonzero;"/>
                <path d="M266.199,0.198C265.131,0.198 264.099,0.046 263.104,-0.257C262.108,-0.56 261.32,-0.963 260.74,-1.464L261.63,-3.462C262.197,-3.013 262.893,-2.647 263.717,-2.364C264.541,-2.08 265.368,-1.938 266.199,-1.938C267.228,-1.938 267.996,-2.103 268.504,-2.433C269.011,-2.763 269.265,-3.198 269.265,-3.738C269.265,-4.134 269.123,-4.46 268.84,-4.718C268.556,-4.975 268.197,-5.176 267.762,-5.321C267.327,-5.466 266.733,-5.631 265.982,-5.815C264.927,-6.066 264.073,-6.316 263.42,-6.567C262.767,-6.818 262.207,-7.21 261.739,-7.744C261.271,-8.278 261.037,-9 261.037,-9.91C261.037,-10.675 261.244,-11.37 261.66,-11.997C262.075,-12.623 262.701,-13.121 263.539,-13.49C264.376,-13.859 265.401,-14.044 266.615,-14.044C267.459,-14.044 268.289,-13.938 269.107,-13.727C269.924,-13.516 270.63,-13.213 271.223,-12.817L270.412,-10.82C269.806,-11.176 269.173,-11.446 268.514,-11.631C267.854,-11.815 267.215,-11.908 266.595,-11.908C265.579,-11.908 264.825,-11.736 264.33,-11.393C263.836,-11.05 263.588,-10.595 263.588,-10.028C263.588,-9.633 263.73,-9.31 264.014,-9.059C264.297,-8.809 264.656,-8.611 265.092,-8.466C265.527,-8.321 266.12,-8.156 266.872,-7.971C267.9,-7.734 268.744,-7.487 269.404,-7.23C270.063,-6.972 270.627,-6.58 271.095,-6.053C271.563,-5.525 271.797,-4.813 271.797,-3.916C271.797,-3.152 271.589,-2.459 271.174,-1.84C270.759,-1.22 270.129,-0.725 269.285,-0.356C268.441,0.013 267.412,0.198 266.199,0.198Z" style="fill:rgb(55,71,79);fill-rule:nonzero;"/>
            </g>
        </g>
    </g>
</svg>
